<?xml version="1.0" encoding="UTF-8" standalone="no"?>
<!DOCTYPE svg PUBLIC "-//W3C//DTD SVG 1.1//EN"
 "http://www.w3.org/Graphics/SVG/1.1/DTD/svg11.dtd">
<!-- Generated by graphviz version 2.38.0 (20140413.2041)
 -->
<!-- Title: models_diagram Pages: 1 -->
<svg width="1008pt" height="303pt"
 viewBox="0.00 0.00 1008.00 303.00" xmlns="http://www.w3.org/2000/svg" xmlns:xlink="http://www.w3.org/1999/xlink">
<g id="graph0" class="graph" transform="scale(1 1) rotate(0) translate(4 299)">
<title>models_diagram</title>
<polygon fill="none" stroke="none" points="-4,4 -4,-299 1004,-299 1004,4 -4,4"/>
<!-- _diagram_info -->
<g id="node1" class="node"><title>_diagram_info</title>
<text text-anchor="start" x="8" y="-251.1" font-family="Times,serif" font-size="13.00">Models diagram</text>
<text text-anchor="start" x="8" y="-237.1" font-family="Times,serif" font-size="13.00">Date: Oct 27 2016 &#45; 21:38</text>
<text text-anchor="start" x="8" y="-223.1" font-family="Times,serif" font-size="13.00">Migration version: 20161028014541</text>
<text text-anchor="start" x="8" y="-209.1" font-family="Times,serif" font-size="13.00">Generated by RailRoady 1.5.2</text>
<text text-anchor="start" x="8" y="-195.1" font-family="Times,serif" font-size="13.00">http://railroady.prestonlee.com</text>
</g>
<!-- Category -->
<g id="node2" class="node"><title>Category</title>
<path fill="none" stroke="black" d="M244,-181C244,-181 464,-181 464,-181 470,-181 476,-187 476,-193 476,-193 476,-260 476,-260 476,-266 470,-272 464,-272 464,-272 244,-272 244,-272 238,-272 232,-266 232,-260 232,-260 232,-193 232,-193 232,-187 238,-181 244,-181"/>
<text text-anchor="middle" x="354" y="-256.8" font-family="Times,serif" font-size="14.00">Category</text>
<polyline fill="none" stroke="black" points="232,-249 476,-249 "/>
<text text-anchor="start" x="240" y="-233.8" font-family="Times,serif" font-size="14.00">id :integer</text>
<text text-anchor="start" x="240" y="-218.8" font-family="Times,serif" font-size="14.00">name :character varying</text>
<text text-anchor="start" x="240" y="-203.8" font-family="Times,serif" font-size="14.00">created_at :timestamp without time zone</text>
<text text-anchor="start" x="240" y="-188.8" font-family="Times,serif" font-size="14.00">updated_at :timestamp without time zone</text>
</g>
<!-- User -->
<g id="node3" class="node"><title>User</title>
<path fill="none" stroke="black" d="M506,-173.5C506,-173.5 726,-173.5 726,-173.5 732,-173.5 738,-179.5 738,-185.5 738,-185.5 738,-267.5 738,-267.5 738,-273.5 732,-279.5 726,-279.5 726,-279.5 506,-279.5 506,-279.5 500,-279.5 494,-273.5 494,-267.5 494,-267.5 494,-185.5 494,-185.5 494,-179.5 500,-173.5 506,-173.5"/>
<text text-anchor="middle" x="616" y="-264.3" font-family="Times,serif" font-size="14.00">User</text>
<polyline fill="none" stroke="black" points="494,-256.5 738,-256.5 "/>
<text text-anchor="start" x="502" y="-241.3" font-family="Times,serif" font-size="14.00">id :integer</text>
<text text-anchor="start" x="502" y="-226.3" font-family="Times,serif" font-size="14.00">name :character varying</text>
<text text-anchor="start" x="502" y="-211.3" font-family="Times,serif" font-size="14.00">email :character varying</text>
<text text-anchor="start" x="502" y="-196.3" font-family="Times,serif" font-size="14.00">created_at :timestamp without time zone</text>
<text text-anchor="start" x="502" y="-181.3" font-family="Times,serif" font-size="14.00">updated_at :timestamp without time zone</text>
</g>
<!-- Work -->
<g id="node5" class="node"><title>Work</title>
<path fill="none" stroke="black" d="M637,-0.5C637,-0.5 857,-0.5 857,-0.5 863,-0.5 869,-6.5 869,-12.5 869,-12.5 869,-109.5 869,-109.5 869,-115.5 863,-121.5 857,-121.5 857,-121.5 637,-121.5 637,-121.5 631,-121.5 625,-115.5 625,-109.5 625,-109.5 625,-12.5 625,-12.5 625,-6.5 631,-0.5 637,-0.5"/>
<text text-anchor="middle" x="747" y="-106.3" font-family="Times,serif" font-size="14.00">Work</text>
<polyline fill="none" stroke="black" points="625,-98.5 869,-98.5 "/>
<text text-anchor="start" x="633" y="-83.3" font-family="Times,serif" font-size="14.00">id :integer</text>
<text text-anchor="start" x="633" y="-68.3" font-family="Times,serif" font-size="14.00">description :text</text>
<text text-anchor="start" x="633" y="-53.3" font-family="Times,serif" font-size="14.00">user_id :integer</text>
<text text-anchor="start" x="633" y="-38.3" font-family="Times,serif" font-size="14.00">inventory_id :integer</text>
<text text-anchor="start" x="633" y="-23.3" font-family="Times,serif" font-size="14.00">created_at :timestamp without time zone</text>
<text text-anchor="start" x="633" y="-8.3" font-family="Times,serif" font-size="14.00">updated_at :timestamp without time zone</text>
</g>
<!-- User&#45;&gt;Work -->
<g id="edge1" class="edge"><title>User&#45;&gt;Work</title>
<path fill="none" stroke="#293f88" d="M662.816,-167.07C672.512,-154.968 682.803,-142.123 692.74,-129.722"/>
<ellipse fill="none" stroke="#293f88" cx="660.311" cy="-170.196" rx="4.00002" ry="4.00002"/>
<polygon fill="#293f88" stroke="#293f88" points="692.955,-129.453 702.72,-124.463 696.082,-125.551 699.208,-121.649 699.208,-121.649 699.208,-121.649 696.082,-125.551 695.696,-118.835 692.955,-129.453 692.955,-129.453"/>
</g>
<!-- Inventory -->
<g id="node4" class="node"><title>Inventory</title>
<path fill="none" stroke="black" d="M768,-158.5C768,-158.5 988,-158.5 988,-158.5 994,-158.5 1000,-164.5 1000,-170.5 1000,-170.5 1000,-282.5 1000,-282.5 1000,-288.5 994,-294.5 988,-294.5 988,-294.5 768,-294.5 768,-294.5 762,-294.5 756,-288.5 756,-282.5 756,-282.5 756,-170.5 756,-170.5 756,-164.5 762,-158.5 768,-158.5"/>
<text text-anchor="middle" x="878" y="-279.3" font-family="Times,serif" font-size="14.00">Inventory</text>
<polyline fill="none" stroke="black" points="756,-271.5 1000,-271.5 "/>
<text text-anchor="start" x="764" y="-256.3" font-family="Times,serif" font-size="14.00">id :integer</text>
<text text-anchor="start" x="764" y="-241.3" font-family="Times,serif" font-size="14.00">serial :character varying</text>
<text text-anchor="start" x="764" y="-226.3" font-family="Times,serif" font-size="14.00">size :integer</text>
<text text-anchor="start" x="764" y="-211.3" font-family="Times,serif" font-size="14.00">description :text</text>
<text text-anchor="start" x="764" y="-196.3" font-family="Times,serif" font-size="14.00">category_id :integer</text>
<text text-anchor="start" x="764" y="-181.3" font-family="Times,serif" font-size="14.00">created_at :timestamp without time zone</text>
<text text-anchor="start" x="764" y="-166.3" font-family="Times,serif" font-size="14.00">updated_at :timestamp without time zone</text>
</g>
<!-- Inventory&#45;&gt;Work -->
<g id="edge2" class="edge"><title>Inventory&#45;&gt;Work</title>
<path fill="none" stroke="#b85721" d="M818.956,-151.808C812.65,-143.937 806.263,-135.965 800.032,-128.189"/>
<ellipse fill="none" stroke="#b85721" cx="821.46" cy="-154.933" rx="4.00002" ry="4.00002"/>
<ellipse fill="#b85721" stroke="#b85721" cx="797.341" cy="-124.83" rx="4.00002" ry="4.00002"/>
</g>
</g>
</svg>
