<?xml version="1.0" encoding="UTF-8" standalone="no"?>
<!DOCTYPE svg PUBLIC "-//W3C//DTD SVG 1.1//EN"
 "http://www.w3.org/Graphics/SVG/1.1/DTD/svg11.dtd">
<!-- Generated by graphviz version 2.38.0 (20140413.2041)
 -->
<!-- Title: models_diagram Pages: 1 -->
<svg width="506pt" height="158pt"
 viewBox="0.00 0.00 505.85 158.00" xmlns="http://www.w3.org/2000/svg" xmlns:xlink="http://www.w3.org/1999/xlink">
<g id="graph0" class="graph" transform="scale(1 1) rotate(0) translate(4 154)">
<title>models_diagram</title>
<polygon fill="none" stroke="none" points="-4,4 -4,-154 501.846,-154 501.846,4 -4,4"/>
<!-- _diagram_info -->
<g id="node1" class="node"><title>_diagram_info</title>
<text text-anchor="start" x="8" y="-135.6" font-family="Times,serif" font-size="13.00">Models diagram</text>
<text text-anchor="start" x="8" y="-121.6" font-family="Times,serif" font-size="13.00">Date: Oct 27 2016 &#45; 21:38</text>
<text text-anchor="start" x="8" y="-107.6" font-family="Times,serif" font-size="13.00">Migration version: 20161028014541</text>
<text text-anchor="start" x="8" y="-93.6" font-family="Times,serif" font-size="13.00">Generated by RailRoady 1.5.2</text>
<text text-anchor="start" x="8" y="-79.6" font-family="Times,serif" font-size="13.00">http://railroady.prestonlee.com</text>
</g>
<!-- Category -->
<g id="node2" class="node"><title>Category</title>
<ellipse fill="none" stroke="black" cx="275" cy="-111" rx="42.7926" ry="18"/>
<text text-anchor="middle" x="275" y="-107.3" font-family="Times,serif" font-size="14.00">Category</text>
</g>
<!-- User -->
<g id="node3" class="node"><title>User</title>
<ellipse fill="none" stroke="black" cx="363" cy="-111" rx="27.0966" ry="18"/>
<text text-anchor="middle" x="363" y="-107.3" font-family="Times,serif" font-size="14.00">User</text>
</g>
<!-- Work -->
<g id="node5" class="node"><title>Work</title>
<ellipse fill="none" stroke="black" cx="408" cy="-18" rx="31.3957" ry="18"/>
<text text-anchor="middle" x="408" y="-14.3" font-family="Times,serif" font-size="14.00">Work</text>
</g>
<!-- User&#45;&gt;Work -->
<g id="edge1" class="edge"><title>User&#45;&gt;Work</title>
<path fill="none" stroke="#206d88" d="M374.715,-86.3102C381.076,-73.4462 388.944,-57.5355 395.433,-44.4135"/>
<ellipse fill="none" stroke="#206d88" cx="372.818" cy="-90.1455" rx="4.00002" ry="4.00002"/>
<polygon fill="#206d88" stroke="#206d88" points="395.44,-44.3988 403.907,-37.4297 397.656,-39.9169 399.873,-35.4349 399.873,-35.4349 399.873,-35.4349 397.656,-39.9169 395.839,-33.4402 395.44,-44.3988 395.44,-44.3988"/>
</g>
<!-- Inventory -->
<g id="node4" class="node"><title>Inventory</title>
<ellipse fill="none" stroke="black" cx="453" cy="-111" rx="44.6926" ry="18"/>
<text text-anchor="middle" x="453" y="-107.3" font-family="Times,serif" font-size="14.00">Inventory</text>
</g>
<!-- Inventory&#45;&gt;Work -->
<g id="edge2" class="edge"><title>Inventory&#45;&gt;Work</title>
<path fill="none" stroke="#99317e" d="M440.879,-85.4893C434.318,-72.2217 426.25,-55.9048 419.747,-42.7557"/>
<ellipse fill="none" stroke="#99317e" cx="442.763" cy="-89.298" rx="4.00002" ry="4.00002"/>
<ellipse fill="#99317e" stroke="#99317e" cx="417.896" cy="-39.0123" rx="4.00002" ry="4.00002"/>
</g>
</g>
</svg>
